HIERARCHY
ROOT pelvis
{
  OFFSET 0 100 0
  CHANNELS 6 Xposition Yposition Zposition Zrotation Xrotation Yrotation
  JOINT pelvis_right_femur
  {
    OFFSET -10.78128 -3.44521 -0.5502486
    CHANNELS 3 Zrotation Xrotation Yrotation
    JOINT right_femur_tibia
    {
      OFFSET -0.8047443 -44.0398 -0.1307829
      CHANNELS 3 Zrotation Xrotation Yrotation
      JOINT right_tibia_foot
      {
        OFFSET 3.006224 -47.83518 -5
        CHANNELS 3 Zrotation Xrotation Yrotation
        End Site
        {
          OFFSET 0 -5 15
        }
      }
    }
  }
  JOINT pelvis_left_femur
  {
    OFFSET 10.78128 -3.44521 -0.5502486
    CHANNELS 3 Zrotation Xrotation Yrotation
    JOINT left_femur_tibia
    {
      OFFSET 0.8047443 -44.0398 -0.1307829
      CHANNELS 3 Zrotation Xrotation Yrotation
      JOINT left_tibia_foot
      {
        OFFSET -4.370144 -48.10324 -4.275266
        CHANNELS 3 Zrotation Xrotation Yrotation
        End Site
        {
          OFFSET 0 -5 15
        }
      }
    }
  }
  JOINT pelvis_spine1
  {
    OFFSET 0 6.468898 -3.129235
    CHANNELS 3 Zrotation Xrotation Yrotation
    JOINT spine1
    {
      OFFSET 0 23.15396 4.99043
      CHANNELS 3 Zrotation Xrotation Yrotation
      JOINT spine2
      {
        OFFSET 0 20.79997 -5.064912
        CHANNELS 3 Zrotation Xrotation Yrotation
        JOINT neck
        {
          OFFSET 0 14.38658 9.616178
          CHANNELS 3 Zrotation Xrotation Yrotation
          End Site
          {
            OFFSET 0 20 0
          }
        }
      }
      JOINT right_manubrium
      {
        OFFSET -5.722621 16.35077 3.967754
        CHANNELS 3 Zrotation Xrotation Yrotation
        JOINT right_clavicle
        {
          OFFSET -13.16364 1.694482 -4.693211
          CHANNELS 3 Zrotation Xrotation Yrotation
          JOINT right_humerus
          {
            OFFSET -28.5034 -0.3100689 -2.792744
            CHANNELS 3 Zrotation Xrotation Yrotation
            JOINT right_radius
            {
              OFFSET -25.15693 0.02248979 -1.271978
              CHANNELS 3 Zrotation Xrotation Yrotation
              End Site
              {
                OFFSET -15 0 0
              }
            }
          }
        }
      }
      JOINT left_manubrium
      {
        OFFSET 5.722621 16.35077 3.967754
        CHANNELS 3 Zrotation Xrotation Yrotation
        JOINT left_clavicle
        {
          OFFSET 13.16364 1.694482 -4.693211
          CHANNELS 3 Zrotation Xrotation Yrotation
          JOINT left_humerus
          {
            OFFSET 29.39168 -1.063119 -2.237045
            CHANNELS 3 Zrotation Xrotation Yrotation
            JOINT left_radius
            {
              OFFSET 24.59957 -0.9528479 0.9047498
              CHANNELS 3 Zrotation Xrotation Yrotation
              End Site
              {
                OFFSET 15 -0 -0
              }
            }
          }
        }
      }
    }
  }
}
MOTION
Frames: 23
Frame Time: 0.0416666666667
-1083.847 101.6846 2354.149 -6.338303 -4.855598 -58.35129 -0.05236441 -3.962959 0.3423196 -0 54.13764 -0 -9.408925 12.04259 -0.8392714 -5.317812 0.1436073 -10.35838 -0 15.74495 -0 1.714161 -11.72546 18.75909 -2.539524 -6.226801 7.353619 2.08659 11.87265 -7.755856 1.695589 21.045 6.076969 3.438994 -23.66935 9.539597 6.71243 -21.63182 9.924238 87.85694 35.24339 -24.46159 -0 0 18.77047 -3.909389 7.767621 -2.31181 8.701478 -23.66341 -2.191364 -97.88117 20.77828 27.04722 0 0 -11.35383 19.05711 16.4208 -4.66234
-1087.798 102.1862 2357.316 -6.570889 -4.64519 -57.63197 0.2855795 -10.65256 -0.8067187 -0 47.90222 -0 -9.587191 9.775194 -1.225692 -5.010438 4.17175 -10.08062 -0 13.32792 -0 1.871026 -13.52806 17.81869 -2.498529 -6.10455 7.213953 2.129994 11.76749 -7.766806 1.783365 21.08386 6.032801 3.315395 -23.9907 9.714991 6.678321 -21.49438 9.924595 87.9615 35.29788 -24.46621 -0 0 18.46372 -3.723097 7.819627 -2.135047 8.592204 -23.434 -2.072371 -97.77274 21.43749 26.77256 0 0 -11.85266 18.62042 16.57153 -4.188668
-1091.716 101.9517 2360.393 -6.329036 -4.494947 -57.07409 0.2988502 -16.16322 -2.289842 -0 38.04588 -0 -9.169276 7.332027 -1.482229 -4.906034 7.553073 -9.735963 -0 11.37891 -0 1.619451 -15.60269 16.658 -2.455993 -5.96409 7.074162 2.172721 11.65788 -7.77174 1.861236 21.12469 5.99129 3.200806 -24.28934 9.866477 6.642026 -21.35273 9.932197 88.04802 35.35023 -24.43974 -0 0 18.14304 -3.567373 7.86886 -1.924137 8.463978 -23.20377 -1.977211 -97.64249 22.08094 26.49753 0 0 -12.36365 18.14636 16.69567 -3.672809
-1095.82 101.0775 2363.504 -5.572542 -4.317114 -56.63833 0.150233 -20.37783 -3.83786 -0 26.84354 -0 -8.235941 5.556175 -1.651139 -5.078349 10.37165 -9.254942 -0 10.50315 -0 1.125861 -17.68268 15.42259 -2.412171 -5.80631 6.935474 2.214067 11.54459 -7.77054 1.928962 21.16745 5.95265 3.095667 -24.56299 9.993312 6.603618 -21.20751 9.946707 88.11633 35.40211 -24.38256 -0 0 17.81007 -3.444269 7.915968 -1.680424 8.318295 -22.97429 -1.905427 -97.49019 22.70514 26.22207 0 0 -12.88462 17.63891 16.79155 -3.118446
-1100.262 99.79202 2366.736 -4.476232 -4.032791 -56.27377 0.1098449 -23.36089 -5.084729 -0 16.5608 -0 -7.098433 4.840645 -1.787736 -5.449924 12.71548 -8.626838 -0 11.12865 -0 0.5712203 -19.38009 14.30111 -2.367303 -5.632342 6.79917 2.253271 11.42845 -7.763132 1.986465 21.21198 5.917064 3.00031 -24.80975 10.09513 6.563116 -21.05957 9.967694 88.16639 35.45515 -24.29514 -0 0 17.46693 -3.355713 7.961845 -1.405593 8.156952 -22.74713 -1.85606 -97.31599 23.30686 25.94631 0 0 -13.41305 17.10255 16.85798 -2.52982
-1105.127 98.37793 2370.126 -3.368535 -3.625868 -55.95098 0.4419218 -25.18272 -5.706952 -0 8.871806 -0 -6.118082 5.106286 -1.954294 -5.834509 14.60225 -7.89956 -0 13.52704 -0 0.03555091 -20.28385 13.41388 -2.321613 -5.443528 6.666556 2.28953 11.31033 -7.749483 2.033824 21.25804 5.884695 2.914973 -25.02814 10.1719 6.52049 -20.90991 9.994649 88.19818 35.51085 -24.17803 -0 0 17.11622 -3.303504 8.007606 -1.101599 7.981997 -22.52376 -1.827691 -97.12041 23.88311 25.67053 0 0 -13.94613 16.54207 16.89424 -1.911623
-1110.435 97.1148 2373.664 -2.600049 -3.14513 -55.67757 1.307425 -25.82337 -5.536704 -0 4.575535 -0 -5.546917 5.91324 -2.195835 -6.021599 15.93326 -7.153492 -0 17.83512 -0 -0.5151143 -20.06798 12.78561 -2.275309 -5.241374 6.538939 2.32202 11.19112 -7.729595 2.071254 21.30531 5.855692 2.839812 -25.2171 10.22397 6.475669 -20.75964 10.027 88.2117 35.57061 -24.03178 -0 0 16.7609 -3.289327 8.054551 -0.7705868 7.795668 -22.30557 -1.818492 -96.90433 24.43116 25.39518 0 0 -14.48086 15.96251 16.9001 -1.268863
-1116.141 96.24465 2377.313 -2.42126 -2.683325 -55.50793 2.694221 -25.17858 -4.610352 -0 3.600841 -0 -5.465464 6.648284 -2.530585 -5.857877 16.47026 -6.473647 -0 24.04521 -0 -1.137306 -18.58231 12.40296 -2.228588 -5.027513 6.417597 2.349921 11.07166 -7.703499 2.09909 21.35339 5.830201 2.774913 -25.37599 10.25197 6.428539 -20.60998 10.06413 88.20687 35.6356 -23.85688 -0 0 16.40429 -3.314751 8.104122 -0.4148117 7.600333 -22.09383 -1.826271 -96.669 24.94861 25.12095 0 0 -15.014 15.36893 16.87581 -0.6066978
-1122.12 95.94036 2381.006 -2.903765 -2.355963 -55.53984 4.37584 -23.14215 -3.168891 -0 5.1469 -0 -5.804744 6.729694 -2.946491 -5.30662 15.85193 -5.932667 -0 31.91566 -0 -1.815752 -15.9385 12.27774 -2.18164 -4.803671 6.303752 2.372436 10.95275 -7.671252 2.117762 21.40179 5.808373 2.720306 -25.5046 10.25681 6.378966 -20.46221 10.10541 88.18353 35.70677 -23.65369 -0 0 16.04997 -3.381243 8.157856 -0.03656553 7.398431 -21.88962 -1.84853 -96.41603 25.43339 24.84872 0 0 -15.54213 14.76627 16.82213 0.06973619
-1128.17 96.26357 2384.653 -3.905401 -2.277454 -55.87686 5.939721 -19.72536 -1.60105 -0 7.894578 -0 -6.409571 5.813324 -3.378066 -4.476206 13.68769 -5.578814 -0 40.79033 -0 -2.451531 -12.57855 12.44504 -2.134658 -4.571631 6.198539 2.388821 10.83508 -7.632947 2.127772 21.44997 5.790372 2.675966 -25.60309 10.23963 6.326803 -20.31763 10.1502 88.14136 35.78475 -23.42247 -0 0 15.7018 -3.490177 8.217328 0.3618895 7.192414 -21.6939 -1.882521 -96.1474 25.88376 24.57969 0 0 -16.06157 14.15914 16.74026 0.7555058
-1134.059 97.12407 2388.156 -5.102652 -2.523316 -56.55557 6.941176 -15.15568 -0.3042092 -0 10.37153 -0 -7.106994 3.94982 -3.684495 -3.581325 9.752309 -5.418683 -0 49.42478 -0 -2.929934 -9.234062 12.9077 -2.087851 -4.333201 6.102972 2.398422 10.71925 -7.588715 2.129663 21.49733 5.776376 2.641828 -25.672 10.20175 6.271917 -20.17751 10.19788 88.07982 35.86973 -23.16333 -0 0 15.36376 -3.64284 8.284087 0.7783727 6.984693 -21.50741 -1.925311 -95.86548 26.29836 24.3153 0 0 -16.56837 13.55165 16.63187 1.446042
-1139.606 98.27918 2391.439 -6.127337 -3.076083 -57.48884 7.154648 -9.875852 0.4937038 -0 11.49671 -0 -7.74677 1.550535 -3.702668 -2.801823 4.216301 -5.390094 -0 56.04749 -0 -3.196564 -6.668096 13.6067 -2.041461 -4.090185 6.017897 2.400705 10.60573 -7.538741 2.123992 21.54324 5.766578 2.617778 -25.71218 10.14461 6.214221 -20.04302 10.24789 87.9982 35.96145 -22.87627 -0 0 15.03995 -3.840414 8.35958 1.210824 6.777577 -21.33074 -1.973879 -95.57303 26.67613 24.05725 0 0 -17.05834 12.94723 16.49903 2.137271
-1144.751 99.39989 2394.476 -6.762424 -3.776529 -58.49876 6.750194 -4.41525 0.823627 -0 11.0437 -0 -8.213202 -0.9316143 -3.388404 -2.109821 -2.272295 -5.339973 -0 58.84869 -0 -3.274983 -5.276705 14.46579 -1.995782 -3.844347 5.943954 2.395298 10.49488 -7.483273 2.111307 21.58709 5.761164 2.603653 -25.72474 10.06971 6.153696 -19.91518 10.29972 87.89563 36.05912 -22.56127 -0 0 14.73437 -4.083945 8.445083 1.657331 6.573201 -21.16426 -2.025237 -95.27304 27.01639 23.80742 0 0 -17.52703 12.34853 16.34413 2.82568
-1149.548 100.1759 2397.307 -7.028522 -4.341375 -59.42815 6.194104 0.7733504 0.8824441 -0 9.625999 -0 -8.446446 -3.382223 -2.890794 -1.25882 -8.797875 -5.06685 -0 56.7438 -0 -3.222286 -4.887997 15.43882 -1.951171 -3.597363 5.881553 2.38201 10.38698 -7.422621 2.092129 21.62831 5.760292 2.599222 -25.71095 9.978558 6.090417 -19.7948 10.35296 87.77119 36.16148 -22.21835 -0 0 14.45076 -4.37428 8.541632 2.11614 6.373457 -21.00817 -2.076587 -94.96866 27.3187 23.5677 0 0 -17.96995 11.75748 16.16972 3.508308
-1154.112 100.4048 2400.02 -7.056541 -4.488929 -60.21688 5.903052 5.381574 0.842827 -0 8.193839 -0 -8.471195 -6.031993 -2.41501 -0.02653609 -14.54378 -4.464144 -0 49.93513 -0 -3.082671 -4.979635 16.45962 -1.908049 -3.350796 5.830875 2.360839 10.28226 -7.357147 2.066951 21.6664 5.764061 2.604171 -25.67222 9.872615 6.024558 -19.6825 10.40728 87.62399 36.2669 -21.84767 -0 0 14.19244 -4.712002 8.649986 2.58566 6.179928 -20.86249 -2.125461 -94.66301 27.58288 23.33987 0 0 -18.38275 11.17535 15.9784 4.182662
-1158.567 100.039 2402.728 -6.909098 -4.099314 -60.88646 5.960551 9.213375 0.7650043 -0 7.503509 -0 -8.375755 -9.036181 -2.024458 1.506038 -19.01675 -3.647103 -0 39.94465 -0 -2.88595 -5.067064 17.36716 -1.866894 -3.106068 5.791895 2.331957 10.18096 -7.287245 2.036241 21.701 5.772479 2.618084 -25.60997 9.753292 5.956381 -19.57866 10.46242 87.45336 36.37346 -21.44962 -0 0 13.96215 -5.097367 8.770604 3.064454 5.99385 -20.72704 -2.169826 -94.35897 27.80892 23.12547 0 0 -18.76141 10.60289 15.77263 4.846634
-1163.04 99.18419 2405.554 -6.575131 -3.294268 -61.49352 6.121855 12.18256 0.6490916 -0 7.893816 -0 -8.242134 -12.10437 -1.625576 2.927869 -22.03801 -2.928694 -0 29.13567 -0 -2.672496 -4.919971 17.97367 -1.828221 -2.864449 5.764408 2.295696 10.08335 -7.21333 2.00045 21.73189 5.785446 2.640427 -25.52562 9.621932 5.88623 -19.4835 10.51824 87.25886 36.47906 -21.02484 -0 0 13.76203 -5.530266 8.903663 3.551224 5.816095 -20.60149 -2.208142 -94.05919 27.99699 22.92577 0 0 -19.10237 10.0405 15.55468 5.498426
-1167.649 98.04473 2408.604 -6.09478 -2.39815 -62.10212 6.022323 14.40343 0.479936 -0 9.313139 -0 -8.122535 -14.56552 -1.098209 3.720689 -23.65311 -2.698399 -0 19.88505 -0 -2.520974 -4.588455 18.2472 -1.792566 -2.627058 5.748075 2.252509 9.989767 -7.135818 1.960028 21.75897 5.80274 2.670547 -25.42055 9.479814 5.814505 -19.39709 10.57463 87.04039 36.58153 -20.57426 -0 0 13.59358 -6.010207 9.049078 4.044798 5.647177 -20.48535 -2.239367 -93.76591 28.14737 22.74174 0 0 -19.40262 9.488301 15.32655 6.1365
-1172.482 96.84162 2411.937 -5.6211 -1.799925 -62.75998 5.397602 16.23222 0.2120764 -0 11.49028 -0 -8.096284 -15.73457 -0.3987604 3.530512 -24.06225 -3.293651 -0 13.71231 -0 -2.550117 -4.331456 18.3997 -1.76045 -2.394873 5.742477 2.20293 9.900629 -7.055103 1.915435 21.78228 5.824022 2.707672 -25.2961 9.328171 5.741635 -19.31943 10.63155 86.79822 36.67869 -20.09909 -0 0 13.4577 -6.53631 9.206561 4.544104 5.487289 -20.37797 -2.262933 -93.48103 28.26052 22.57407 0 0 -19.65977 8.946312 15.08992 6.759526
-1177.583 95.7566 2415.546 -5.34996 -1.777801 -63.46686 4.196652 18.08308 -0.2013955 -0 14.23567 -0 -8.296167 -15.17514 0.4274156 2.320601 -23.51897 -4.864194 -0 10.87455 -0 -2.840308 -4.455165 18.75055 -1.732356 -2.168752 5.747164 2.14753 9.816432 -6.971545 1.867155 21.80193 5.848851 2.750925 -25.15352 9.168223 5.66805 -19.25049 10.68899 86.53301 36.76841 -19.60082 -0 0 13.35484 -7.10733 9.375675 5.048148 5.336353 -20.27858 -2.278677 -93.20609 28.33701 22.42324 0 0 -19.8721 8.414529 14.84617 7.36634
-1182.939 94.93521 2419.359 -5.395793 -2.382859 -64.15392 2.566119 20.06735 -0.7092617 -0 17.74403 -0 -8.829866 -12.67262 1.2918 0.3550937 -22.18875 -7.245868 -0 10.69118 -0 -3.299226 -5.110299 19.46223 -1.708705 -1.949463 5.761686 2.086891 9.73774 -6.88547 1.815705 21.81812 5.876706 2.799341 -24.99403 9.001196 5.594166 -19.19025 10.74695 86.24577 36.84866 -19.08118 -0 0 13.28502 -7.721664 9.555882 5.555969 5.194087 -20.18632 -2.286763 -92.94236 28.37757 22.2896 0 0 -20.03846 7.892973 14.59643 7.955943
-1188.495 94.51929 2423.279 -5.723896 -3.432493 -64.69272 0.7782814 21.72534 -1.131723 -0 22.62165 -0 -9.697667 -8.168205 2.102353 -1.911229 -20.08073 -9.929105 -0 12.18196 -0 -3.619065 -6.1789 20.39163 -1.68985 -1.7377 5.785594 2.021591 9.665172 -6.797177 1.76163 21.83112 5.907009 2.851883 -24.8188 8.828334 5.520391 -19.13872 10.80544 85.93786 36.91748 -18.5422 -0 0 13.24801 -8.377378 9.746568 6.066609 5.060057 -20.10025 -2.287608 -92.6909 28.3831 22.17342 0 0 -20.15818 7.381652 14.34166 8.527534
-1194.144 94.65032 2427.206 -6.192954 -4.586137 -64.93785 -0.8154088 22.09914 -1.298214 -0 29.45642 -0 -10.81178 -1.979944 2.770885 -3.963571 -17.12032 -12.22034 -0 14.41943 -0 -3.434071 -7.345886 21.19202 -1.67607 -1.534094 5.818423 1.952209 9.59938 -6.706963 1.705497 21.84118 5.939142 2.90746 -24.62895 8.650901 5.447129 -19.09589 10.86448 85.61099 36.97288 -17.9862 -0 0 13.2433 -9.072216 9.947063 6.579081 4.933715 -20.01938 -2.281845 -92.45263 28.3547 22.0749 0 0 -20.23106 6.880492 14.08266 9.080562
